<svg width="182" height="63" viewBox="0 0 182 63" fill="none" xmlns="http://www.w3.org/2000/svg">
<path d="M7.5 58V20.9186C7.5 20.5158 7.68212 20.1346 7.99549 19.8814L24.3078 6.70453C24.812 6.29727 25.536 6.31154 26.0237 6.73835L41.0447 19.8833C41.3341 20.1365 41.5 20.5022 41.5 20.8867V37.6244C41.5 38.3608 40.9031 38.9577 40.1667 38.9577H26.5133C25.777 38.9577 25.18 38.3608 25.18 37.6244V27.2394" stroke="url(#paint0_linear_181472_4781)" stroke-width="9.33333"/>
<path d="M54.52 12.7566C54.52 13.1833 54.4167 13.5466 54.21 13.8466C54.0033 14.14 53.7067 14.3666 53.32 14.5266C52.94 14.6866 52.49 14.7666 51.97 14.7666C51.7033 14.7666 51.4467 14.7533 51.2 14.7266C50.96 14.7 50.74 14.6633 50.54 14.6166C50.34 14.5633 50.1633 14.5 50.01 14.4266V13.5666C50.25 13.6733 50.5467 13.77 50.9 13.8566C51.26 13.9433 51.63 13.9866 52.01 13.9866C52.3633 13.9866 52.66 13.94 52.9 13.8466C53.14 13.7533 53.32 13.62 53.44 13.4466C53.56 13.2733 53.62 13.07 53.62 12.8366C53.62 12.6033 53.57 12.4066 53.47 12.2466C53.37 12.0866 53.1967 11.94 52.95 11.8066C52.71 11.6666 52.3733 11.52 51.94 11.3666C51.6333 11.2533 51.3633 11.1333 51.13 11.0066C50.9033 10.8733 50.7133 10.7233 50.56 10.5566C50.4067 10.39 50.29 10.2 50.21 9.98663C50.1367 9.77329 50.1 9.52663 50.1 9.24662C50.1 8.86662 50.1967 8.54329 50.39 8.27662C50.5833 8.00329 50.85 7.79329 51.19 7.64663C51.5367 7.49996 51.9333 7.42662 52.38 7.42662C52.7733 7.42662 53.1333 7.46329 53.46 7.53662C53.7867 7.60996 54.0833 7.70663 54.35 7.82663L54.07 8.59662C53.8233 8.48996 53.5533 8.39996 53.26 8.32663C52.9733 8.25329 52.6733 8.21662 52.36 8.21662C52.06 8.21662 51.81 8.25996 51.61 8.34663C51.41 8.43329 51.26 8.55663 51.16 8.71663C51.06 8.86996 51.01 9.04996 51.01 9.25663C51.01 9.49663 51.06 9.69663 51.16 9.85663C51.26 10.0166 51.4233 10.16 51.65 10.2866C51.8767 10.4133 52.1833 10.55 52.57 10.6966C52.99 10.85 53.3433 11.0166 53.63 11.1966C53.9233 11.37 54.1433 11.58 54.29 11.8266C54.4433 12.0733 54.52 12.3833 54.52 12.7566ZM56.7183 9.30663V14.6666H55.8383V9.30663H56.7183ZM56.2883 7.29662C56.4216 7.29662 56.5383 7.34329 56.6383 7.43662C56.7449 7.52329 56.7983 7.66329 56.7983 7.85662C56.7983 8.04329 56.7449 8.18329 56.6383 8.27662C56.5383 8.36996 56.4216 8.41663 56.2883 8.41663C56.1416 8.41663 56.0183 8.36996 55.9183 8.27662C55.8183 8.18329 55.7683 8.04329 55.7683 7.85662C55.7683 7.66329 55.8183 7.52329 55.9183 7.43662C56.0183 7.34329 56.1416 7.29662 56.2883 7.29662ZM61.9064 13.1866C61.9064 13.5333 61.8197 13.8233 61.6464 14.0566C61.4731 14.29 61.2264 14.4666 60.9064 14.5866C60.5864 14.7066 60.2064 14.7666 59.7664 14.7666C59.3931 14.7666 59.0697 14.7366 58.7964 14.6766C58.5297 14.6166 58.2931 14.5333 58.0864 14.4266V13.6266C58.2997 13.7333 58.5564 13.8333 58.8564 13.9266C59.1631 14.0133 59.4731 14.0566 59.7864 14.0566C60.2331 14.0566 60.5564 13.9866 60.7564 13.8466C60.9564 13.7 61.0564 13.5066 61.0564 13.2666C61.0564 13.1333 61.0197 13.0133 60.9464 12.9066C60.8731 12.8 60.7397 12.6933 60.5464 12.5866C60.3597 12.48 60.0897 12.36 59.7364 12.2266C59.3897 12.0933 59.0931 11.96 58.8464 11.8266C58.5997 11.6933 58.4097 11.5333 58.2764 11.3466C58.1431 11.16 58.0764 10.92 58.0764 10.6266C58.0764 10.1733 58.2597 9.82329 58.6264 9.57663C58.9997 9.32996 59.4864 9.20663 60.0864 9.20663C60.4131 9.20663 60.7164 9.23996 60.9964 9.30663C61.2831 9.36663 61.5497 9.45329 61.7964 9.56662L61.4964 10.2666C61.3497 10.2 61.1931 10.1433 61.0264 10.0966C60.8664 10.0433 60.7031 10.0033 60.5364 9.97663C60.3697 9.94329 60.1997 9.92663 60.0264 9.92663C59.6664 9.92663 59.3897 9.98663 59.1964 10.1066C59.0097 10.22 58.9164 10.3766 58.9164 10.5766C58.9164 10.7233 58.9597 10.85 59.0464 10.9566C59.1331 11.0566 59.2764 11.1566 59.4764 11.2566C59.6831 11.35 59.9564 11.4633 60.2964 11.5966C60.6364 11.7233 60.9264 11.8533 61.1664 11.9866C61.4064 12.12 61.5897 12.2833 61.7164 12.4766C61.8431 12.6633 61.9064 12.9 61.9064 13.1866ZM64.9916 14.0466C65.1249 14.0466 65.2616 14.0366 65.4016 14.0166C65.5416 13.99 65.6549 13.9633 65.7416 13.9366V14.6066C65.6482 14.6533 65.5149 14.69 65.3416 14.7166C65.1682 14.75 65.0016 14.7666 64.8416 14.7666C64.5616 14.7666 64.3016 14.72 64.0616 14.6266C63.8282 14.5266 63.6382 14.3566 63.4916 14.1166C63.3449 13.8766 63.2716 13.54 63.2716 13.1066V9.98663H62.5116V9.56662L63.2816 9.21663L63.6316 8.07662H64.1516V9.30663H65.7016V9.98663H64.1516V13.0866C64.1516 13.4133 64.2282 13.6566 64.3816 13.8166C64.5416 13.97 64.7449 14.0466 64.9916 14.0466ZM68.8848 9.20663C69.3448 9.20663 69.7382 9.30663 70.0648 9.50663C70.3982 9.70663 70.6515 9.98996 70.8248 10.3566C71.0048 10.7166 71.0948 11.14 71.0948 11.6266V12.1566H67.4248C67.4382 12.7633 67.5915 13.2266 67.8848 13.5466C68.1848 13.86 68.6015 14.0166 69.1348 14.0166C69.4748 14.0166 69.7748 13.9866 70.0348 13.9266C70.3015 13.86 70.5748 13.7666 70.8548 13.6466V14.4166C70.5815 14.5366 70.3115 14.6233 70.0448 14.6766C69.7782 14.7366 69.4615 14.7666 69.0948 14.7666C68.5882 14.7666 68.1382 14.6633 67.7448 14.4566C67.3582 14.25 67.0548 13.9433 66.8348 13.5366C66.6215 13.1233 66.5148 12.62 66.5148 12.0266C66.5148 11.44 66.6115 10.9366 66.8048 10.5166C67.0048 10.0966 67.2815 9.77329 67.6348 9.54663C67.9948 9.31996 68.4115 9.20663 68.8848 9.20663ZM68.8748 9.92663C68.4548 9.92663 68.1215 10.0633 67.8748 10.3366C67.6348 10.6033 67.4915 10.9766 67.4448 11.4566H70.1748C70.1748 11.15 70.1282 10.8833 70.0348 10.6566C69.9415 10.43 69.7982 10.2533 69.6048 10.1266C69.4182 9.99329 69.1748 9.92663 68.8748 9.92663ZM78.3394 9.20663C78.946 9.20663 79.3994 9.36329 79.6994 9.67663C79.9994 9.98329 80.1494 10.4833 80.1494 11.1766V14.6666H79.2794V11.2166C79.2794 10.7966 79.1894 10.48 79.0094 10.2666C78.836 10.0533 78.5627 9.94663 78.1894 9.94663C77.6694 9.94663 77.296 10.0966 77.0694 10.3966C76.8494 10.6966 76.7394 11.1333 76.7394 11.7066V14.6666H75.8694V11.2166C75.8694 10.9366 75.8294 10.7033 75.7494 10.5166C75.6694 10.3233 75.5494 10.18 75.3894 10.0866C75.2294 9.99329 75.0227 9.94663 74.7694 9.94663C74.4094 9.94663 74.126 10.0233 73.9194 10.1766C73.7127 10.3233 73.5627 10.54 73.4694 10.8266C73.3827 11.1133 73.3394 11.4666 73.3394 11.8866V14.6666H72.4594V9.30663H73.1694L73.2994 10.0366H73.3494C73.4627 9.84996 73.5994 9.69663 73.7594 9.57663C73.926 9.44996 74.1094 9.35663 74.3094 9.29663C74.5094 9.23663 74.716 9.20663 74.9294 9.20663C75.3427 9.20663 75.686 9.27996 75.9594 9.42662C76.2394 9.57329 76.4427 9.79996 76.5694 10.1066H76.6194C76.7994 9.79996 77.0427 9.57329 77.3494 9.42662C77.6627 9.27996 77.9927 9.20663 78.3394 9.20663ZM83.8351 9.21663C84.4884 9.21663 84.9717 9.35996 85.2851 9.64663C85.5984 9.93329 85.7551 10.39 85.7551 11.0166V14.6666H85.1151L84.9451 13.9066H84.9051C84.7517 14.1 84.5917 14.2633 84.4251 14.3966C84.2651 14.5233 84.0784 14.6166 83.8651 14.6766C83.6584 14.7366 83.4051 14.7666 83.1051 14.7666C82.7851 14.7666 82.4951 14.71 82.2351 14.5966C81.9817 14.4833 81.7817 14.31 81.6351 14.0766C81.4884 13.8366 81.4151 13.5366 81.4151 13.1766C81.4151 12.6433 81.6251 12.2333 82.0451 11.9466C82.4651 11.6533 83.1117 11.4933 83.9851 11.4666L84.8951 11.4366V11.1166C84.8951 10.67 84.7984 10.36 84.6051 10.1866C84.4117 10.0133 84.1384 9.92663 83.7851 9.92663C83.5051 9.92663 83.2384 9.96996 82.9851 10.0566C82.7317 10.1366 82.4951 10.23 82.2751 10.3366L82.0051 9.67663C82.2384 9.54996 82.5151 9.44329 82.8351 9.35663C83.1551 9.26329 83.4884 9.21663 83.8351 9.21663ZM84.0951 12.0766C83.4284 12.1033 82.9651 12.21 82.7051 12.3966C82.4517 12.5833 82.3251 12.8466 82.3251 13.1866C82.3251 13.4866 82.4151 13.7066 82.5951 13.8466C82.7817 13.9866 83.0184 14.0566 83.3051 14.0566C83.7584 14.0566 84.1351 13.9333 84.4351 13.6866C84.7351 13.4333 84.8851 13.0466 84.8851 12.5266V12.0466L84.0951 12.0766ZM91.9082 14.7666C91.2415 14.7666 90.7082 14.5366 90.3082 14.0766C89.9082 13.61 89.7082 12.9166 89.7082 11.9966C89.7082 11.0766 89.9082 10.3833 90.3082 9.91663C90.7149 9.44329 91.2515 9.20663 91.9182 9.20663C92.1982 9.20663 92.4415 9.24329 92.6482 9.31663C92.8549 9.38329 93.0349 9.47663 93.1882 9.59663C93.3415 9.71663 93.4715 9.84996 93.5782 9.99663H93.6382C93.6315 9.90996 93.6182 9.78329 93.5982 9.61663C93.5849 9.44329 93.5782 9.30663 93.5782 9.20663V7.06662H94.4582V14.6666H93.7482L93.6182 13.9466H93.5782C93.4715 14.1 93.3415 14.24 93.1882 14.3666C93.0349 14.4866 92.8515 14.5833 92.6382 14.6566C92.4315 14.73 92.1882 14.7666 91.9082 14.7666ZM92.0482 14.0366C92.6149 14.0366 93.0115 13.8833 93.2382 13.5766C93.4715 13.2633 93.5882 12.7933 93.5882 12.1666V12.0066C93.5882 11.34 93.4782 10.83 93.2582 10.4766C93.0382 10.1166 92.6315 9.93663 92.0382 9.93663C91.5649 9.93663 91.2082 10.1266 90.9682 10.5066C90.7349 10.88 90.6182 11.3833 90.6182 12.0166C90.6182 12.6566 90.7349 13.1533 90.9682 13.5066C91.2082 13.86 91.5682 14.0366 92.0482 14.0366ZM98.2306 9.20663C98.6906 9.20663 99.0839 9.30663 99.4106 9.50663C99.7439 9.70663 99.9972 9.98996 100.171 10.3566C100.351 10.7166 100.441 11.14 100.441 11.6266V12.1566H96.7706C96.7839 12.7633 96.9372 13.2266 97.2306 13.5466C97.5306 13.86 97.9472 14.0166 98.4806 14.0166C98.8206 14.0166 99.1206 13.9866 99.3806 13.9266C99.6472 13.86 99.9206 13.7666 100.201 13.6466V14.4166C99.9272 14.5366 99.6572 14.6233 99.3906 14.6766C99.1239 14.7366 98.8072 14.7666 98.4406 14.7666C97.9339 14.7666 97.4839 14.6633 97.0906 14.4566C96.7039 14.25 96.4006 13.9433 96.1806 13.5366C95.9672 13.1233 95.8606 12.62 95.8606 12.0266C95.8606 11.44 95.9572 10.9366 96.1506 10.5166C96.3506 10.0966 96.6272 9.77329 96.9806 9.54663C97.3406 9.31996 97.7572 9.20663 98.2306 9.20663ZM98.2206 9.92663C97.8006 9.92663 97.4672 10.0633 97.2206 10.3366C96.9806 10.6033 96.8372 10.9766 96.7906 11.4566H99.5206C99.5206 11.15 99.4739 10.8833 99.3806 10.6566C99.2872 10.43 99.1439 10.2533 98.9506 10.1266C98.7639 9.99329 98.5206 9.92663 98.2206 9.92663ZM109.003 14.6666L108.143 12.4566H105.313L104.463 14.6666H103.553L106.343 7.49663H107.153L109.933 14.6666H109.003ZM107.073 9.49663C107.053 9.44329 107.019 9.34663 106.973 9.20663C106.926 9.06663 106.879 8.92329 106.833 8.77662C106.793 8.62329 106.759 8.50663 106.733 8.42663C106.699 8.55996 106.663 8.69663 106.623 8.83663C106.589 8.96996 106.553 9.09329 106.513 9.20663C106.479 9.31996 106.449 9.41663 106.423 9.49663L105.613 11.6566H107.873L107.073 9.49663ZM112.689 14.7666C112.023 14.7666 111.489 14.5366 111.089 14.0766C110.689 13.61 110.489 12.9166 110.489 11.9966C110.489 11.0766 110.689 10.3833 111.089 9.91663C111.496 9.44329 112.033 9.20663 112.699 9.20663C112.979 9.20663 113.223 9.24329 113.429 9.31663C113.636 9.38329 113.816 9.47663 113.969 9.59663C114.123 9.71663 114.253 9.84996 114.359 9.99663H114.419C114.413 9.90996 114.399 9.78329 114.379 9.61663C114.366 9.44329 114.359 9.30663 114.359 9.20663V7.06662H115.239V14.6666H114.529L114.399 13.9466H114.359C114.253 14.1 114.123 14.24 113.969 14.3666C113.816 14.4866 113.633 14.5833 113.419 14.6566C113.213 14.73 112.969 14.7666 112.689 14.7666ZM112.829 14.0366C113.396 14.0366 113.793 13.8833 114.019 13.5766C114.253 13.2633 114.369 12.7933 114.369 12.1666V12.0066C114.369 11.34 114.259 10.83 114.039 10.4766C113.819 10.1166 113.413 9.93663 112.819 9.93663C112.346 9.93663 111.989 10.1266 111.749 10.5066C111.516 10.88 111.399 11.3833 111.399 12.0166C111.399 12.6566 111.516 13.1533 111.749 13.5066C111.989 13.86 112.349 14.0366 112.829 14.0366ZM122.822 9.20663C123.428 9.20663 123.882 9.36329 124.182 9.67663C124.482 9.98329 124.632 10.4833 124.632 11.1766V14.6666H123.762V11.2166C123.762 10.7966 123.672 10.48 123.492 10.2666C123.318 10.0533 123.045 9.94663 122.672 9.94663C122.152 9.94663 121.778 10.0966 121.552 10.3966C121.332 10.6966 121.222 11.1333 121.222 11.7066V14.6666H120.352V11.2166C120.352 10.9366 120.312 10.7033 120.232 10.5166C120.152 10.3233 120.032 10.18 119.872 10.0866C119.712 9.99329 119.505 9.94663 119.252 9.94663C118.892 9.94663 118.608 10.0233 118.402 10.1766C118.195 10.3233 118.045 10.54 117.952 10.8266C117.865 11.1133 117.822 11.4666 117.822 11.8866V14.6666H116.942V9.30663H117.652L117.782 10.0366H117.832C117.945 9.84996 118.082 9.69663 118.242 9.57663C118.408 9.44996 118.592 9.35663 118.792 9.29663C118.992 9.23663 119.198 9.20663 119.412 9.20663C119.825 9.20663 120.168 9.27996 120.442 9.42662C120.722 9.57329 120.925 9.79996 121.052 10.1066H121.102C121.282 9.79996 121.525 9.57329 121.832 9.42662C122.145 9.27996 122.475 9.20663 122.822 9.20663ZM127.168 9.30663V14.6666H126.288V9.30663H127.168ZM126.738 7.29662C126.871 7.29662 126.988 7.34329 127.088 7.43662C127.194 7.52329 127.248 7.66329 127.248 7.85662C127.248 8.04329 127.194 8.18329 127.088 8.27662C126.988 8.36996 126.871 8.41663 126.738 8.41663C126.591 8.41663 126.468 8.36996 126.368 8.27662C126.268 8.18329 126.218 8.04329 126.218 7.85662C126.218 7.66329 126.268 7.52329 126.368 7.43662C126.468 7.34329 126.591 7.29662 126.738 7.29662ZM131.446 9.20663C132.086 9.20663 132.569 9.36329 132.896 9.67663C133.222 9.98329 133.386 10.4833 133.386 11.1766V14.6666H132.516V11.2366C132.516 10.8033 132.419 10.48 132.226 10.2666C132.032 10.0533 131.729 9.94663 131.316 9.94663C130.722 9.94663 130.312 10.1133 130.086 10.4466C129.859 10.78 129.746 11.26 129.746 11.8866V14.6666H128.866V9.30663H129.576L129.706 10.0366H129.756C129.876 9.84996 130.022 9.69663 130.196 9.57663C130.376 9.44996 130.572 9.35663 130.786 9.29663C130.999 9.23663 131.219 9.20663 131.446 9.20663ZM135.927 9.30663V14.6666H135.047V9.30663H135.927ZM135.497 7.29662C135.631 7.29662 135.747 7.34329 135.847 7.43662C135.954 7.52329 136.007 7.66329 136.007 7.85662C136.007 8.04329 135.954 8.18329 135.847 8.27662C135.747 8.36996 135.631 8.41663 135.497 8.41663C135.351 8.41663 135.227 8.36996 135.127 8.27662C135.027 8.18329 134.977 8.04329 134.977 7.85662C134.977 7.66329 135.027 7.52329 135.127 7.43662C135.227 7.34329 135.351 7.29662 135.497 7.29662ZM141.115 13.1866C141.115 13.5333 141.029 13.8233 140.855 14.0566C140.682 14.29 140.435 14.4666 140.115 14.5866C139.795 14.7066 139.415 14.7666 138.975 14.7666C138.602 14.7666 138.279 14.7366 138.005 14.6766C137.739 14.6166 137.502 14.5333 137.295 14.4266V13.6266C137.509 13.7333 137.765 13.8333 138.065 13.9266C138.372 14.0133 138.682 14.0566 138.995 14.0566C139.442 14.0566 139.765 13.9866 139.965 13.8466C140.165 13.7 140.265 13.5066 140.265 13.2666C140.265 13.1333 140.229 13.0133 140.155 12.9066C140.082 12.8 139.949 12.6933 139.755 12.5866C139.569 12.48 139.299 12.36 138.945 12.2266C138.599 12.0933 138.302 11.96 138.055 11.8266C137.809 11.6933 137.619 11.5333 137.485 11.3466C137.352 11.16 137.285 10.92 137.285 10.6266C137.285 10.1733 137.469 9.82329 137.835 9.57663C138.209 9.32996 138.695 9.20663 139.295 9.20663C139.622 9.20663 139.925 9.23996 140.205 9.30663C140.492 9.36663 140.759 9.45329 141.005 9.56662L140.705 10.2666C140.559 10.2 140.402 10.1433 140.235 10.0966C140.075 10.0433 139.912 10.0033 139.745 9.97663C139.579 9.94329 139.409 9.92663 139.235 9.92663C138.875 9.92663 138.599 9.98663 138.405 10.1066C138.219 10.22 138.125 10.3766 138.125 10.5766C138.125 10.7233 138.169 10.85 138.255 10.9566C138.342 11.0566 138.485 11.1566 138.685 11.2566C138.892 11.35 139.165 11.4633 139.505 11.5966C139.845 11.7233 140.135 11.8533 140.375 11.9866C140.615 12.12 140.799 12.2833 140.925 12.4766C141.052 12.6633 141.115 12.9 141.115 13.1866ZM144.201 14.0466C144.334 14.0466 144.471 14.0366 144.611 14.0166C144.751 13.99 144.864 13.9633 144.951 13.9366V14.6066C144.857 14.6533 144.724 14.69 144.551 14.7166C144.377 14.75 144.211 14.7666 144.051 14.7666C143.771 14.7666 143.511 14.72 143.271 14.6266C143.037 14.5266 142.847 14.3566 142.701 14.1166C142.554 13.8766 142.481 13.54 142.481 13.1066V9.98663H141.721V9.56662L142.491 9.21663L142.841 8.07662H143.361V9.30663H144.911V9.98663H143.361V13.0866C143.361 13.4133 143.437 13.6566 143.591 13.8166C143.751 13.97 143.954 14.0466 144.201 14.0466ZM148.524 9.20663C148.624 9.20663 148.731 9.21329 148.844 9.22663C148.964 9.23329 149.067 9.24663 149.154 9.26663L149.044 10.0766C148.957 10.0566 148.861 10.04 148.754 10.0266C148.654 10.0133 148.557 10.0066 148.464 10.0066C148.257 10.0066 148.061 10.05 147.874 10.1366C147.687 10.2233 147.521 10.3466 147.374 10.5066C147.227 10.66 147.111 10.8466 147.024 11.0666C146.944 11.2866 146.904 11.5333 146.904 11.8066V14.6666H146.024V9.30663H146.744L146.844 10.2866H146.884C146.997 10.0866 147.134 9.90663 147.294 9.74663C147.454 9.57996 147.637 9.44996 147.844 9.35663C148.051 9.25663 148.277 9.20663 148.524 9.20663ZM151.989 9.21663C152.643 9.21663 153.126 9.35996 153.439 9.64663C153.753 9.93329 153.909 10.39 153.909 11.0166V14.6666H153.269L153.099 13.9066H153.059C152.906 14.1 152.746 14.2633 152.579 14.3966C152.419 14.5233 152.233 14.6166 152.019 14.6766C151.813 14.7366 151.559 14.7666 151.259 14.7666C150.939 14.7666 150.649 14.71 150.389 14.5966C150.136 14.4833 149.936 14.31 149.789 14.0766C149.643 13.8366 149.569 13.5366 149.569 13.1766C149.569 12.6433 149.779 12.2333 150.199 11.9466C150.619 11.6533 151.266 11.4933 152.139 11.4666L153.049 11.4366V11.1166C153.049 10.67 152.953 10.36 152.759 10.1866C152.566 10.0133 152.293 9.92663 151.939 9.92663C151.659 9.92663 151.393 9.96996 151.139 10.0566C150.886 10.1366 150.649 10.23 150.429 10.3366L150.159 9.67663C150.393 9.54996 150.669 9.44329 150.989 9.35663C151.309 9.26329 151.643 9.21663 151.989 9.21663ZM152.249 12.0766C151.583 12.1033 151.119 12.21 150.859 12.3966C150.606 12.5833 150.479 12.8466 150.479 13.1866C150.479 13.4866 150.569 13.7066 150.749 13.8466C150.936 13.9866 151.173 14.0566 151.459 14.0566C151.913 14.0566 152.289 13.9333 152.589 13.6866C152.889 13.4333 153.039 13.0466 153.039 12.5266V12.0466L152.249 12.0766ZM157.715 14.7666C157.242 14.7666 156.818 14.67 156.445 14.4766C156.078 14.2833 155.788 13.9833 155.575 13.5766C155.368 13.17 155.265 12.65 155.265 12.0166C155.265 11.3566 155.375 10.82 155.595 10.4066C155.815 9.99329 156.112 9.68996 156.485 9.49663C156.865 9.30329 157.295 9.20663 157.775 9.20663C158.048 9.20663 158.312 9.23663 158.565 9.29663C158.818 9.34996 159.025 9.41663 159.185 9.49663L158.915 10.2266C158.755 10.1666 158.568 10.11 158.355 10.0566C158.142 10.0033 157.942 9.97663 157.755 9.97663C157.395 9.97663 157.098 10.0533 156.865 10.2066C156.632 10.36 156.458 10.5866 156.345 10.8866C156.232 11.1866 156.175 11.56 156.175 12.0066C156.175 12.4333 156.232 12.7966 156.345 13.0966C156.458 13.3966 156.628 13.6233 156.855 13.7766C157.082 13.93 157.365 14.0066 157.705 14.0066C157.998 14.0066 158.255 13.9766 158.475 13.9166C158.702 13.8566 158.908 13.7833 159.095 13.6966V14.4766C158.915 14.57 158.715 14.64 158.495 14.6866C158.282 14.74 158.022 14.7666 157.715 14.7666ZM161.25 9.30663V14.6666H160.37V9.30663H161.25ZM160.82 7.29662C160.953 7.29662 161.07 7.34329 161.17 7.43662C161.276 7.52329 161.33 7.66329 161.33 7.85662C161.33 8.04329 161.276 8.18329 161.17 8.27662C161.07 8.36996 160.953 8.41663 160.82 8.41663C160.673 8.41663 160.55 8.36996 160.45 8.27662C160.35 8.18329 160.3 8.04329 160.3 7.85662C160.3 7.66329 160.35 7.52329 160.45 7.43662C160.55 7.34329 160.673 7.29662 160.82 7.29662ZM167.608 11.9766C167.608 12.4233 167.548 12.82 167.428 13.1666C167.314 13.5066 167.148 13.7966 166.928 14.0366C166.714 14.2766 166.451 14.46 166.138 14.5866C165.831 14.7066 165.488 14.7666 165.108 14.7666C164.754 14.7666 164.428 14.7066 164.128 14.5866C163.828 14.46 163.568 14.2766 163.348 14.0366C163.128 13.7966 162.954 13.5066 162.828 13.1666C162.708 12.82 162.648 12.4233 162.648 11.9766C162.648 11.3833 162.748 10.8833 162.948 10.4766C163.148 10.0633 163.434 9.74996 163.808 9.53663C164.181 9.31663 164.624 9.20663 165.138 9.20663C165.624 9.20663 166.051 9.31663 166.418 9.53663C166.791 9.74996 167.081 10.0633 167.288 10.4766C167.501 10.8833 167.608 11.3833 167.608 11.9766ZM163.558 11.9766C163.558 12.3966 163.611 12.7633 163.718 13.0766C163.831 13.3833 164.004 13.62 164.238 13.7866C164.471 13.9533 164.768 14.0366 165.128 14.0366C165.488 14.0366 165.784 13.9533 166.018 13.7866C166.251 13.62 166.421 13.3833 166.528 13.0766C166.641 12.7633 166.698 12.3966 166.698 11.9766C166.698 11.55 166.641 11.1866 166.528 10.8866C166.414 10.5866 166.241 10.3566 166.008 10.1966C165.781 10.03 165.484 9.94663 165.118 9.94663C164.571 9.94663 164.174 10.1266 163.928 10.4866C163.681 10.8466 163.558 11.3433 163.558 11.9766ZM166.608 7.10662C166.548 7.19996 166.461 7.31329 166.348 7.44662C166.234 7.57996 166.108 7.71996 165.968 7.86663C165.834 8.00663 165.698 8.14329 165.558 8.27662C165.424 8.40329 165.298 8.51329 165.178 8.60663H164.598V8.48663C164.698 8.35996 164.804 8.20996 164.918 8.03662C165.038 7.86329 165.154 7.68663 165.268 7.50663C165.381 7.31996 165.474 7.15329 165.548 7.00662H166.608V7.10662ZM171.582 9.20663C172.222 9.20663 172.706 9.36329 173.032 9.67663C173.359 9.98329 173.522 10.4833 173.522 11.1766V14.6666H172.652V11.2366C172.652 10.8033 172.556 10.48 172.362 10.2666C172.169 10.0533 171.866 9.94663 171.452 9.94663C170.859 9.94663 170.449 10.1133 170.222 10.4466C169.996 10.78 169.882 11.26 169.882 11.8866V14.6666H169.002V9.30663H169.712L169.842 10.0366H169.892C170.012 9.84996 170.159 9.69663 170.332 9.57663C170.512 9.44996 170.709 9.35663 170.922 9.29663C171.136 9.23663 171.356 9.20663 171.582 9.20663Z" fill="black"/>
<path d="M70.927 43H63.367L62.007 37.24C61.9537 37.0267 61.8603 36.6667 61.727 36.16C61.6203 35.6267 61.487 35.24 61.327 35C61.167 34.7333 60.9403 34.56 60.647 34.48C59.9003 34.5067 58.807 34.52 57.367 34.52V43H50.167V20.4C53.3937 20.16 56.407 20.04 59.207 20.04C61.7403 20.04 63.7937 20.2533 65.367 20.68C66.9403 21.08 68.1137 21.7867 68.887 22.8C69.687 23.7867 70.087 25.1467 70.087 26.88C70.087 28.5067 69.7137 29.7867 68.967 30.72C68.2203 31.6267 67.0203 32.1733 65.367 32.36V32.6C66.3003 32.68 67.0737 32.9867 67.687 33.52C68.327 34.0267 68.7537 34.68 68.967 35.48L70.927 43ZM57.367 30C57.607 30.0267 58.0737 30.04 58.767 30.04C60.8203 30.04 62.0203 29.8667 62.367 29.52C62.687 29.2 62.847 28.4533 62.847 27.28C62.847 26.1867 62.5537 25.44 61.967 25.04C61.407 24.64 60.4737 24.44 59.167 24.44C58.8737 24.44 58.2737 24.4667 57.367 24.52V30ZM73.1701 20.2H89.7701V25H80.3701V29.16H88.2901V33.48H80.3701V38.12H89.7301V43H73.1701V20.2ZM100.823 20.2C103.943 20.2 106.49 20.4933 108.463 21.08C110.463 21.6667 112.01 22.7733 113.103 24.4C114.223 26.0267 114.783 28.36 114.783 31.4C114.783 34.6533 114.197 37.1333 113.023 38.84C111.85 40.52 110.277 41.64 108.303 42.2C106.33 42.7333 103.837 43 100.823 43H92.8232V20.2H100.823ZM106.183 37.56C106.503 37.24 106.73 36.4133 106.863 35.08C106.997 33.7467 107.063 32.52 107.063 31.4C107.063 29.9867 106.957 28.8667 106.743 28.04C106.557 27.1867 106.21 26.5067 105.703 26C104.903 25.12 103.53 24.68 101.583 24.68C101.237 24.68 100.717 24.7067 100.023 24.76V38.04C100.477 38.0933 101.183 38.12 102.143 38.12C103.13 38.12 103.997 38.08 104.743 38C105.517 37.8933 105.997 37.7467 106.183 37.56ZM118.02 20.2H125.22V43H118.02V20.2ZM140.389 43.52C136.415 43.52 133.429 42.5867 131.429 40.72C129.455 38.8267 128.469 35.8 128.469 31.64C128.469 27.56 129.562 24.5867 131.749 22.72C133.935 20.8533 136.829 19.92 140.429 19.92C148.002 19.92 151.789 23.6933 151.789 31.24C151.789 35.0533 150.855 38.0533 148.989 40.24C147.149 42.4267 144.282 43.52 140.389 43.52ZM140.229 38.8C140.975 38.8 141.602 38.68 142.109 38.44C142.615 38.1733 143.015 37.72 143.309 37.08C143.869 35.9867 144.149 34.2 144.149 31.72C144.149 29.2933 143.869 27.5333 143.309 26.44C142.749 25.32 141.722 24.7333 140.229 24.68C139.669 24.68 139.082 24.7467 138.469 24.88C137.882 24.9867 137.509 25.1467 137.349 25.36C137.029 25.7333 136.775 26.5333 136.589 27.76C136.429 28.96 136.349 30.28 136.349 31.72C136.349 33.96 136.562 35.6 136.989 36.64C137.282 37.4133 137.695 37.9733 138.229 38.32C138.762 38.64 139.429 38.8 140.229 38.8ZM161.532 26.36C161.532 26.92 161.812 27.36 162.372 27.68C162.958 28 163.865 28.3467 165.092 28.72C166.558 29.2 167.758 29.6667 168.692 30.12C169.652 30.5733 170.478 31.28 171.172 32.24C171.892 33.2 172.252 34.4533 172.252 36C172.252 40.96 169.025 43.44 162.572 43.44C161.505 43.44 160.198 43.3467 158.652 43.16C157.132 42.9733 155.745 42.7333 154.492 42.44C154.545 41.88 154.652 41.0667 154.812 40C154.998 38.9067 155.172 38.0933 155.332 37.56C156.265 37.6933 157.665 37.8533 159.532 38.04C161.425 38.2267 162.852 38.32 163.812 38.32C164.372 38.32 164.705 38.28 164.812 38.2C164.972 38.0933 165.092 37.92 165.172 37.68C165.278 37.4133 165.332 37.1867 165.332 37C165.332 36.4667 165.078 36.0667 164.572 35.8C164.065 35.5067 163.198 35.16 161.972 34.76C160.505 34.3067 159.292 33.84 158.332 33.36C157.372 32.88 156.532 32.1333 155.812 31.12C155.092 30.1067 154.732 28.7733 154.732 27.12C154.732 25.9467 154.998 24.8 155.532 23.68C156.065 22.5333 156.612 21.76 157.172 21.36C157.598 21.0667 158.478 20.7867 159.812 20.52C161.145 20.2533 162.398 20.12 163.572 20.12C166.558 20.12 168.998 20.4 170.892 20.96C170.865 21.4933 170.772 22.2267 170.612 23.16C170.478 24.0933 170.332 24.9467 170.172 25.72L169.252 25.68C165.785 25.44 163.572 25.32 162.612 25.32C162.212 25.32 161.985 25.3333 161.932 25.36C161.825 25.4133 161.732 25.5333 161.652 25.72C161.572 25.9067 161.532 26.12 161.532 26.36Z" fill="#4939BB"/>
<defs>
<linearGradient id="paint0_linear_181472_4781" x1="-2.83333" y1="56.3333" x2="43.8333" y2="48" gradientUnits="userSpaceOnUse">
<stop stop-color="#2C2270"/>
<stop offset="1" stop-color="#4939BB"/>
</linearGradient>
</defs>
</svg>
