<svg width="1409" height="672" viewBox="0 0 1409 672" fill="none" xmlns="http://www.w3.org/2000/svg">
<rect x="91.75" y="226.75" width="162.5" height="443.5" fill="white" stroke="#4939BB" stroke-width="1.5"/>
<rect x="254.75" y="346.75" width="201.5" height="323.5" fill="white" stroke="#4939BB" stroke-width="1.5"/>
<rect x="456.75" y="454.75" width="155.5" height="215.5" fill="white" stroke="#4939BB" stroke-width="1.5"/>
<rect x="612.75" y="513.75" width="135.5" height="156.5" fill="white" stroke="#4939BB" stroke-width="1.5"/>
<rect x="84.75" y="214.75" width="175.5" height="11.5" fill="white" stroke="#4939BB" stroke-width="1.5"/>
<line x1="114.5" y1="214" x2="114.5" y2="182" stroke="#4939BB"/>
<line x1="124.25" y1="214.06" x2="124.25" y2="197.965" stroke="#4939BB"/>
<rect x="218.75" y="199.75" width="15.5" height="14.5" fill="white" stroke="#4939BB" stroke-width="1.5"/>
<rect x="290.75" y="307.75" width="125.5" height="38.5" fill="white" stroke="#4939BB" stroke-width="1.5"/>
<rect x="281.75" y="288.75" width="143.5" height="18.5" fill="white" stroke="#4939BB" stroke-width="1.5"/>
<rect x="309.75" y="277.75" width="10.5" height="10.5" fill="white" stroke="#4939BB" stroke-width="1.5"/>
<rect x="303.75" y="266.75" width="21.5" height="10.5" fill="white" stroke="#4939BB" stroke-width="1.5"/>
<rect x="483.75" y="444.75" width="29.5" height="9.5" fill="white" stroke="#4939BB" stroke-width="1.5"/>
<rect x="569.75" y="445.75" width="10.5" height="8.5" fill="white" stroke="#4939BB" stroke-width="1.5"/>
<rect x="564.75" y="436.75" width="20.5" height="8.5" fill="white" stroke="#4939BB" stroke-width="1.5"/>
<rect x="748.75" y="389.75" width="151.5" height="280.5" fill="white" stroke="#4939BB" stroke-width="1.5"/>
<rect x="769.75" y="367.75" width="107.5" height="21.5" fill="white" stroke="#4939BB" stroke-width="1.5"/>
<path d="M1102.25 278V670.25H899.75V278.531L1102.25 207.06V278Z" fill="white" stroke="#4939BB" stroke-width="1.5"/>
<line x1="1238.75" y1="36" x2="1238.75" y2="66" stroke="#4939BB" stroke-width="1.5"/>
<line x1="1238.75" y1="108" x2="1238.75" y2="138" stroke="#4939BB" stroke-width="1.5"/>
<line x1="1238.75" y1="179" x2="1238.75" y2="209" stroke="#4939BB" stroke-width="1.5"/>
<line x1="1238.75" y1="250" x2="1238.75" y2="280" stroke="#4939BB" stroke-width="1.5"/>
<line x1="1238.75" y1="324" x2="1238.75" y2="354" stroke="#4939BB" stroke-width="1.5"/>
<line x1="1238.75" y1="395" x2="1238.75" y2="425" stroke="#4939BB" stroke-width="1.5"/>
<line x1="1238.75" y1="467" x2="1238.75" y2="497" stroke="#4939BB" stroke-width="1.5"/>
<line x1="1238.75" y1="540" x2="1238.75" y2="570" stroke="#4939BB" stroke-width="1.5"/>
<line x1="1238.75" y1="611" x2="1238.75" y2="641" stroke="#4939BB" stroke-width="1.5"/>
<path d="M1328.25 196.274V670.25H1102.75V0.75H1271.25V128.5V128.774L1271.43 128.984L1328.25 196.274Z" fill="white" stroke="#4939BB" stroke-width="1.5"/>
<rect x="91.75" y="226.75" width="162.5" height="443.5" stroke="#4939BB" stroke-width="1.5"/>
<rect x="254.75" y="346.75" width="201.5" height="323.5" stroke="#4939BB" stroke-width="1.5"/>
<rect x="456.75" y="454.75" width="155.5" height="215.5" stroke="#4939BB" stroke-width="1.5"/>
<rect x="612.75" y="513.75" width="135.5" height="156.5" stroke="#4939BB" stroke-width="1.5"/>
<rect x="284.75" y="396.75" width="48.5" height="43.5" stroke="#4939BB" stroke-width="1.5"/>
<rect x="938.75" y="290.75" width="127.5" height="28.5" stroke="#4939BB" stroke-width="1.5"/>
<rect x="1122.75" y="36.75" width="127.5" height="28.5" stroke="#4939BB" stroke-width="1.5"/>
<rect x="1122.75" y="108.75" width="127.5" height="28.5" stroke="#4939BB" stroke-width="1.5"/>
<rect x="1122.75" y="179.75" width="127.5" height="28.5" stroke="#4939BB" stroke-width="1.5"/>
<rect x="1122.75" y="250.75" width="127.5" height="28.5" stroke="#4939BB" stroke-width="1.5"/>
<rect x="1122.75" y="324.75" width="127.5" height="28.5" stroke="#4939BB" stroke-width="1.5"/>
<rect x="1122.75" y="395.75" width="127.5" height="28.5" stroke="#4939BB" stroke-width="1.5"/>
<rect x="1122.75" y="467.75" width="127.5" height="28.5" stroke="#4939BB" stroke-width="1.5"/>
<rect x="1122.75" y="540.75" width="127.5" height="28.5" stroke="#4939BB" stroke-width="1.5"/>
<rect x="1122.75" y="611.75" width="127.5" height="28.5" stroke="#4939BB" stroke-width="1.5"/>
<rect x="938.75" y="354.75" width="127.5" height="28.5" stroke="#4939BB" stroke-width="1.5"/>
<rect x="938.75" y="420.75" width="127.5" height="28.5" stroke="#4939BB" stroke-width="1.5"/>
<rect x="938.75" y="484.75" width="127.5" height="28.5" stroke="#4939BB" stroke-width="1.5"/>
<rect x="284.75" y="484.75" width="48.5" height="43.5" stroke="#4939BB" stroke-width="1.5"/>
<rect x="372.75" y="396.75" width="48.5" height="43.5" stroke="#4939BB" stroke-width="1.5"/>
<rect x="372.75" y="484.75" width="48.5" height="43.5" stroke="#4939BB" stroke-width="1.5"/>
<rect x="313.75" y="317.75" width="79.5" height="15.5" stroke="#4939BB" stroke-width="1.5"/>
<line x1="319.175" y1="441" x2="319.175" y2="397" stroke="#4939BB" stroke-width="1.65"/>
<line x1="319.175" y1="529" x2="319.175" y2="485" stroke="#4939BB" stroke-width="1.65"/>
<line x1="407.175" y1="441" x2="407.175" y2="397" stroke="#4939BB" stroke-width="1.65"/>
<line x1="383.175" y1="334" x2="383.175" y2="318" stroke="#4939BB" stroke-width="1.65"/>
<line x1="407.175" y1="529" x2="407.175" y2="485" stroke="#4939BB" stroke-width="1.65"/>
<rect x="119.75" y="253.75" width="29.5" height="40.5" stroke="#4939BB" stroke-width="1.5"/>
<line x1="119" y1="262.175" x2="150" y2="262.175" stroke="#4939BB" stroke-width="1.65"/>
<rect x="191.75" y="253.75" width="29.5" height="40.5" stroke="#4939BB" stroke-width="1.5"/>
<line x1="191" y1="262.175" x2="222" y2="262.175" stroke="#4939BB" stroke-width="1.65"/>
<rect x="271.75" y="604.75" width="29.5" height="40.5" stroke="#4939BB" stroke-width="1.5"/>
<line x1="271" y1="613.175" x2="302" y2="613.175" stroke="#4939BB" stroke-width="1.65"/>
<rect x="338.75" y="604.75" width="29.5" height="40.5" stroke="#4939BB" stroke-width="1.5"/>
<line x1="338" y1="613.175" x2="369" y2="613.175" stroke="#4939BB" stroke-width="1.65"/>
<rect x="406.75" y="604.75" width="29.5" height="40.5" stroke="#4939BB" stroke-width="1.5"/>
<line x1="406" y1="613.175" x2="437" y2="613.175" stroke="#4939BB" stroke-width="1.65"/>
<rect x="483.75" y="501.75" width="29.5" height="40.5" stroke="#4939BB" stroke-width="1.5"/>
<rect x="773.75" y="425.75" width="29.5" height="40.5" stroke="#4939BB" stroke-width="1.5"/>
<rect x="773.75" y="509.75" width="29.5" height="40.5" stroke="#4939BB" stroke-width="1.5"/>
<rect x="773.75" y="592.75" width="29.5" height="40.5" stroke="#4939BB" stroke-width="1.5"/>
<rect x="843.75" y="425.75" width="29.5" height="40.5" stroke="#4939BB" stroke-width="1.5"/>
<rect x="843.75" y="509.75" width="29.5" height="40.5" stroke="#4939BB" stroke-width="1.5"/>
<rect x="1277.75" y="238.75" width="29.5" height="40.5" stroke="#4939BB" stroke-width="1.5"/>
<rect x="1277.75" y="309.75" width="29.5" height="40.5" stroke="#4939BB" stroke-width="1.5"/>
<rect x="1277.75" y="381.75" width="29.5" height="40.5" stroke="#4939BB" stroke-width="1.5"/>
<rect x="1277.75" y="453.75" width="29.5" height="40.5" stroke="#4939BB" stroke-width="1.5"/>
<rect x="1277.75" y="525.75" width="29.5" height="40.5" stroke="#4939BB" stroke-width="1.5"/>
<rect x="1277.75" y="599.75" width="29.5" height="40.5" stroke="#4939BB" stroke-width="1.5"/>
<rect x="843.75" y="592.75" width="29.5" height="40.5" stroke="#4939BB" stroke-width="1.5"/>
<rect x="922.75" y="588.75" width="29.5" height="58.5" stroke="#4939BB" stroke-width="1.5"/>
<rect x="985.75" y="588.75" width="29.5" height="58.5" stroke="#4939BB" stroke-width="1.5"/>
<rect x="1048.75" y="588.75" width="29.5" height="58.5" stroke="#4939BB" stroke-width="1.5"/>
<line x1="483" y1="510.175" x2="514" y2="510.175" stroke="#4939BB" stroke-width="1.65"/>
<line x1="773" y1="434.175" x2="804" y2="434.175" stroke="#4939BB" stroke-width="1.65"/>
<line x1="773" y1="518.175" x2="804" y2="518.175" stroke="#4939BB" stroke-width="1.65"/>
<line x1="773" y1="601.175" x2="804" y2="601.175" stroke="#4939BB" stroke-width="1.65"/>
<line x1="843" y1="434.175" x2="874" y2="434.175" stroke="#4939BB" stroke-width="1.65"/>
<line x1="843" y1="518.175" x2="874" y2="518.175" stroke="#4939BB" stroke-width="1.65"/>
<line x1="1277" y1="247.175" x2="1308" y2="247.175" stroke="#4939BB" stroke-width="1.65"/>
<line x1="1277" y1="318.175" x2="1308" y2="318.175" stroke="#4939BB" stroke-width="1.65"/>
<line x1="1277" y1="390.175" x2="1308" y2="390.175" stroke="#4939BB" stroke-width="1.65"/>
<line x1="1277" y1="462.175" x2="1308" y2="462.175" stroke="#4939BB" stroke-width="1.65"/>
<line x1="1277" y1="534.175" x2="1308" y2="534.175" stroke="#4939BB" stroke-width="1.65"/>
<line x1="1277" y1="608.175" x2="1308" y2="608.175" stroke="#4939BB" stroke-width="1.65"/>
<line x1="843" y1="601.175" x2="874" y2="601.175" stroke="#4939BB" stroke-width="1.65"/>
<path d="M922 597H937.5H953" stroke="#4939BB" stroke-width="1.65"/>
<path d="M985 597H1000.5H1016" stroke="#4939BB" stroke-width="1.65"/>
<path d="M1048 597H1063.5H1079" stroke="#4939BB" stroke-width="1.65"/>
<path d="M922 639H937.5H953" stroke="#4939BB" stroke-width="1.65"/>
<path d="M985 639H1000.5H1016" stroke="#4939BB" stroke-width="1.65"/>
<path d="M1048 639H1063.5H1079" stroke="#4939BB" stroke-width="1.65"/>
<rect x="553.75" y="501.75" width="29.5" height="40.5" stroke="#4939BB" stroke-width="1.5"/>
<line x1="553" y1="510.175" x2="584" y2="510.175" stroke="#4939BB" stroke-width="1.65"/>
<rect x="483.75" y="590.75" width="29.5" height="40.5" stroke="#4939BB" stroke-width="1.5"/>
<line x1="483" y1="599.175" x2="514" y2="599.175" stroke="#4939BB" stroke-width="1.65"/>
<rect x="553.75" y="590.75" width="29.5" height="40.5" stroke="#4939BB" stroke-width="1.5"/>
<line x1="553" y1="599.175" x2="584" y2="599.175" stroke="#4939BB" stroke-width="1.65"/>
<rect x="191.75" y="339.75" width="29.5" height="40.5" stroke="#4939BB" stroke-width="1.5"/>
<line x1="191" y1="348.175" x2="222" y2="348.175" stroke="#4939BB" stroke-width="1.65"/>
<rect x="191.75" y="424.75" width="29.5" height="40.5" stroke="#4939BB" stroke-width="1.5"/>
<line x1="191" y1="433.175" x2="222" y2="433.175" stroke="#4939BB" stroke-width="1.65"/>
<rect x="191.75" y="508.75" width="29.5" height="40.5" stroke="#4939BB" stroke-width="1.5"/>
<line x1="191" y1="517.175" x2="222" y2="517.175" stroke="#4939BB" stroke-width="1.65"/>
<rect x="191.75" y="594.75" width="29.5" height="40.5" stroke="#4939BB" stroke-width="1.5"/>
<line x1="191" y1="603.175" x2="222" y2="603.175" stroke="#4939BB" stroke-width="1.65"/>
<rect x="119.75" y="594.75" width="29.5" height="40.5" stroke="#4939BB" stroke-width="1.5"/>
<line x1="119" y1="603.175" x2="150" y2="603.175" stroke="#4939BB" stroke-width="1.65"/>
<rect x="119.75" y="508.75" width="29.5" height="40.5" stroke="#4939BB" stroke-width="1.5"/>
<line x1="119" y1="517.175" x2="150" y2="517.175" stroke="#4939BB" stroke-width="1.65"/>
<rect x="119.75" y="424.75" width="29.5" height="40.5" stroke="#4939BB" stroke-width="1.5"/>
<line x1="119" y1="433.175" x2="150" y2="433.175" stroke="#4939BB" stroke-width="1.65"/>
<rect x="119.75" y="339.75" width="29.5" height="40.5" stroke="#4939BB" stroke-width="1.5"/>
<line x1="119" y1="348.175" x2="150" y2="348.175" stroke="#4939BB" stroke-width="1.65"/>
<rect x="84.75" y="214.75" width="175.5" height="11.5" stroke="#4939BB" stroke-width="1.5"/>
<rect x="254.75" y="567.75" width="201.5" height="16.5" stroke="#4939BB" stroke-width="1.5"/>
<line x1="114.5" y1="214" x2="114.5" y2="182" stroke="#4939BB"/>
<line x1="124.25" y1="214.06" x2="124.25" y2="197.965" stroke="#4939BB"/>
<rect x="218.75" y="199.75" width="15.5" height="14.5" stroke="#4939BB" stroke-width="1.5"/>
<line x1="254" y1="361.25" x2="457" y2="361.25" stroke="#4939BB" stroke-width="1.5"/>
<rect x="290.75" y="307.75" width="125.5" height="38.5" stroke="#4939BB" stroke-width="1.5"/>
<rect x="281.75" y="288.75" width="143.5" height="18.5" stroke="#4939BB" stroke-width="1.5"/>
<rect x="309.75" y="277.75" width="10.5" height="10.5" stroke="#4939BB" stroke-width="1.5"/>
<rect x="303.75" y="266.75" width="21.5" height="10.5" stroke="#4939BB" stroke-width="1.5"/>
<line x1="456" y1="469.5" x2="613" y2="469.5" stroke="#4939BB"/>
<rect x="483.75" y="444.75" width="29.5" height="9.5" stroke="#4939BB" stroke-width="1.5"/>
<rect x="569.75" y="445.75" width="10.5" height="8.5" stroke="#4939BB" stroke-width="1.5"/>
<rect x="564.75" y="436.75" width="20.5" height="8.5" stroke="#4939BB" stroke-width="1.5"/>
<line x1="613" y1="534.25" x2="749" y2="534.25" stroke="#4939BB" stroke-width="1.5"/>
<path d="M640.5 657V670.5H655.5V657M640.5 657H655.5M640.5 657V637M655.5 657V637M640.5 637H655.5M640.5 637V619M655.5 637V619M640.5 619V596.5L655.5 602V619M640.5 619H655.5" stroke="#4939BB" stroke-width="1.5"/>
<path d="M719 657.5V671H704V657.5M719 657.5H704M719 657.5V637.5M704 657.5V637.5M719 637.5H704M719 637.5V619.5M704 637.5V619.5M719 619.5V597L704 602.5V619.5M719 619.5H704" stroke="#4939BB" stroke-width="1.5"/>
<path d="M640.501 596C640.334 593 644.512 585.684 650.51 580M650.51 580L660.004 591.5M650.51 580C653.677 577 661.31 570.6 666.51 569M660.004 591.5C658.504 593.667 655.504 598.8 655.504 602M660.004 591.5C662.674 589.333 668.612 584.7 671.012 583.5M666.51 569L671.012 583.5M666.51 569H690.012M671.012 583.5H686.512M690.012 569L686.512 583.5M690.012 569C694.345 570.5 704.112 575 708.512 581M686.512 583.5L697.512 591M697.512 591L704.012 602M697.512 591L708.512 581M708.512 581C712.012 585.167 719 593.7 719 596.5" stroke="#4939BB" stroke-width="1.5"/>
<rect x="748.75" y="389.75" width="151.5" height="280.5" stroke="#4939BB" stroke-width="1.5"/>
<rect x="769.75" y="367.75" width="107.5" height="21.5" stroke="#4939BB" stroke-width="1.5"/>
<path d="M1102.25 278V670.25H899.75V278.531L1102.25 207.06V278Z" stroke="#4939BB" stroke-width="1.5"/>
<line x1="938.75" y1="227" x2="938.75" y2="265" stroke="#4939BB" stroke-width="1.5"/>
<line x1="954.75" y1="240" x2="954.75" y2="259" stroke="#4939BB" stroke-width="1.5"/>
<line x1="1054.75" y1="290" x2="1054.75" y2="320" stroke="#4939BB" stroke-width="1.5"/>
<line x1="1238.75" y1="36" x2="1238.75" y2="66" stroke="#4939BB" stroke-width="1.5"/>
<line x1="1238.75" y1="108" x2="1238.75" y2="138" stroke="#4939BB" stroke-width="1.5"/>
<line x1="1238.75" y1="179" x2="1238.75" y2="209" stroke="#4939BB" stroke-width="1.5"/>
<line x1="1238.75" y1="250" x2="1238.75" y2="280" stroke="#4939BB" stroke-width="1.5"/>
<line x1="1238.75" y1="324" x2="1238.75" y2="354" stroke="#4939BB" stroke-width="1.5"/>
<line x1="1238.75" y1="395" x2="1238.75" y2="425" stroke="#4939BB" stroke-width="1.5"/>
<line x1="1238.75" y1="467" x2="1238.75" y2="497" stroke="#4939BB" stroke-width="1.5"/>
<line x1="1238.75" y1="540" x2="1238.75" y2="570" stroke="#4939BB" stroke-width="1.5"/>
<line x1="1238.75" y1="611" x2="1238.75" y2="641" stroke="#4939BB" stroke-width="1.5"/>
<line x1="1054.75" y1="354" x2="1054.75" y2="384" stroke="#4939BB" stroke-width="1.5"/>
<line x1="1054.75" y1="420" x2="1054.75" y2="450" stroke="#4939BB" stroke-width="1.5"/>
<line x1="1054.75" y1="484" x2="1054.75" y2="514" stroke="#4939BB" stroke-width="1.5"/>
<rect x="899.75" y="547.75" width="202.5" height="13.5" stroke="#4939BB" stroke-width="1.5"/>
<path d="M1328.25 196.274V670.25H1102.75V0.75H1271.25V128.5V128.774L1271.43 128.984L1328.25 196.274Z" stroke="#4939BB" stroke-width="1.5"/>
<line y1="670.25" x2="1409" y2="670.25" stroke="#4939BB" stroke-width="1.5"/>
<path d="M48.6353 642.006H63.6353C63.6353 642.006 83.5523 637.153 90.6353 627.506C97.9118 617.595 96.1353 596.506 96.1353 596.506C96.1353 596.506 102.535 593.258 104.635 589.506C106.753 585.722 106.9 582.773 106.135 578.506C105.302 573.857 104.065 570.625 100.135 568.006C96.2058 565.386 88.1353 566.506 88.1353 566.506C88.1353 566.506 90.6353 563.044 90.6353 560.506C90.6353 557.967 89.9286 556.302 88.1353 554.506C86.2141 552.581 84.3415 552.276 81.6353 552.006C79.0798 551.75 75.1353 553.006 75.1353 553.006C75.1353 553.006 73.3567 540.198 68.1353 534.506C63.1182 529.036 58.5566 526.145 51.1353 526.006C43.8803 525.87 39.0721 528.188 34.1353 533.506C28.7146 539.345 28.1353 553.006 28.1353 553.006C28.1353 553.006 21.5547 551.8 17.6353 553.006C13.2306 554.36 10.7346 556.2 8.13534 560.006C4.26647 565.67 4.23745 571.079 6.63534 577.506C8.38368 582.191 14.6353 587.506 14.6353 587.506C14.6353 587.506 12.0648 589.311 11.1353 591.006C10.0856 592.92 9.96466 594.329 10.1353 596.506C10.314 598.784 10.7316 600.202 12.1353 602.006C13.3347 603.547 16.1353 605.006 16.1353 605.006C16.1353 605.006 16.3148 623.003 23.1353 631.006C30.1701 639.26 48.6353 642.006 48.6353 642.006Z" fill="white" stroke="#4939BB" stroke-width="1.5"/>
<path d="M439.621 667.044C440.453 668.303 442.121 670 442.121 670H497.621C497.621 670 503.241 663.681 502 658.665C500.611 653.054 490.621 650.784 490.621 650.784C490.621 650.784 489.907 645.603 488.121 642.9C485.161 638.42 481.544 636.135 476.121 636.002C469.893 635.849 462.621 644.378 462.621 644.378C462.621 644.378 459.002 641.038 456.121 640.929C452.439 640.79 449.959 642.71 448.121 645.857C446.173 649.192 448.121 655.711 448.121 655.711C448.121 655.711 445.004 655.201 443.121 655.711C440.18 656.507 437.767 657.701 437.121 660.638C436.545 663.258 438.136 664.798 439.621 667.044Z" fill="white" stroke="#4939BB" stroke-width="1.5"/>
<path d="M490.5 650.782L489 652.26" stroke="#4939BB" stroke-width="1.5"/>
<path d="M448 655.709C448.4 655.709 450.167 657.351 451 658.173M462.5 644.376V647.333" stroke="#4939BB" stroke-width="1.5"/>
<path d="M1308.18 667.046C1308.85 668.263 1310.17 670 1310.17 670H1365.56C1365.56 670 1371.18 659.93 1368.06 654.737C1365.65 650.738 1362.26 648.286 1357.58 648.829C1353.31 649.324 1349.09 655.722 1349.09 655.722C1349.09 655.722 1350.89 647.88 1349.09 643.414C1346.09 635.968 1339.22 632.431 1331.13 633.074C1323.63 633.671 1318.7 637.611 1315.66 644.398C1313.99 648.128 1314.16 654.737 1314.16 654.737C1314.16 654.737 1307.45 654.695 1305.68 657.691C1303.76 660.957 1306.34 663.73 1308.18 667.046Z" fill="white"/>
<path d="M1349.09 655.722C1349.09 655.722 1350.89 647.88 1349.09 643.414C1346.09 635.968 1339.22 632.431 1331.13 633.074C1323.63 633.671 1318.7 637.611 1315.66 644.398C1313.99 648.128 1314.16 654.737 1314.16 654.737C1314.16 654.737 1307.45 654.695 1305.68 657.691C1303.76 660.957 1306.34 663.73 1308.18 667.046C1308.85 668.263 1310.17 670 1310.17 670H1365.56C1365.56 670 1371.18 659.93 1368.06 654.737C1365.65 650.738 1362.26 648.286 1357.58 648.829C1353.31 649.324 1349.09 655.722 1349.09 655.722ZM1349.09 655.722L1348.59 656.707" stroke="#4939BB" stroke-width="1.5"/>
<path d="M49.75 642.25H62.7626L63.2372 670.25H49.75V642.25Z" fill="white" stroke="#4939BB" stroke-width="1.5"/>
</svg>
