<svg width="1484" height="163" viewBox="0 0 1484 163" fill="none" xmlns="http://www.w3.org/2000/svg">
<path d="M70.578 84.0028C65.9668 75.2632 58.4462 70.9901 48.578 71.5028C38.7852 72.0115 31.4646 76.8001 28.078 86.0028C25.1401 93.9861 31.578 107.503 31.578 107.503C31.578 107.503 22.6115 98.2342 15.578 99.0028C9.70969 99.644 5.87415 102.304 3.07801 107.503C0.210867 112.834 0.405504 117.572 3.07801 123.003C5.02871 126.967 11.078 131.003 11.078 131.003H113.578M70.578 84.0028C73.5069 89.8606 78.078 99.0028 78.078 99.0028C78.078 99.0028 85.8876 83.4448 94.578 84.0028C101.639 84.4561 108.578 95.5028 108.578 95.5028M70.578 84.0028C74.4833 67.015 71.9812 55.6663 80.578 40.5028C96.3109 12.7522 120.179 0.791025 152.078 1.00276C177.358 1.17056 194.547 7.82072 211.578 26.5028C222.11 38.0556 230.078 62.0028 230.078 62.0028C230.078 62.0028 228.582 48.8973 233.578 43.5028C240.478 36.0534 251.327 37.5849 259.578 43.5028C268.737 50.0719 271.568 61.3963 266.578 71.5028M266.578 71.5028C262.477 75.408 256.078 81.5028 256.078 81.5028M266.578 71.5028C278.318 67.2103 287.078 68.5028 297.078 76.0028C307.078 83.5027 310.838 94.7685 308.078 107.503C305.471 119.531 287.078 131.003 287.078 131.003H162.078M146.578 131.003H128.078M157.578 107.503C157.578 107.503 160.504 99.4566 164.078 95.5028C169.995 88.9568 175.762 85.6308 184.578 86.0028C193.314 86.3714 198.405 90.3496 204.078 97.0028C207.142 100.596 210.078 107.503 210.078 107.503" stroke="#4939BB" stroke-width="1.5"/>
<path d="M1371.73 162.258H1347.73C1347.73 162.258 1333.12 156.623 1328.23 148.758C1321.74 138.312 1320.79 127.051 1328.23 117.258C1334.49 109.031 1342.48 105.998 1352.73 107.258C1361.34 108.316 1371.73 118.758 1371.73 118.758M1371.73 118.758L1376.23 127.258M1371.73 118.758C1371.73 118.758 1369.45 97.3981 1376.23 86.7582C1385.21 72.6836 1398.61 67.7592 1415.23 69.2582C1430.61 70.6446 1440.91 76.9494 1448.73 90.2582C1453.73 98.7582 1453.73 114.758 1453.73 114.758L1451.73 133.258M1451.73 133.258L1443.73 140.758C1443.73 140.758 1438.55 134.05 1433.73 133.258C1426.99 132.15 1418.73 142.258 1418.73 142.258M1451.73 133.258C1451.73 133.258 1460.1 124.896 1466.73 125.258C1475.7 125.749 1481.52 133.302 1482.23 142.258C1482.93 151.007 1470.23 161.258 1470.23 161.258H1409.73M1392.73 162.258H1383.73" stroke="#4939BB" stroke-width="1.5"/>
</svg>
