<svg width="14" height="14" viewBox="0 0 14 14" fill="none" xmlns="http://www.w3.org/2000/svg">
<g clip-path="url(#clip0_180836_4155)">
<rect width="14" height="14" fill="white" fill-opacity="0.01"/>
<g clip-path="url(#clip1_180836_4155)">
<path d="M7.15125 0.282113C4.76844 0.275863 2.67156 1.50868 1.47313 3.37118C1.42 3.45399 1.47938 3.56336 1.57781 3.56336H2.67625C2.75125 3.56336 2.82156 3.53055 2.86844 3.47274C2.97781 3.33993 3.095 3.2118 3.21844 3.08993C3.72781 2.58211 4.32 2.18211 4.97938 1.90399C5.66063 1.61649 6.38563 1.46961 7.13406 1.46961C7.8825 1.46961 8.6075 1.61493 9.28875 1.90399C9.94813 2.18211 10.5403 2.58211 11.0497 3.08993C11.5591 3.59774 11.9575 4.18993 12.2372 4.84774C12.5263 5.52899 12.6716 6.25243 12.6716 7.00086C12.6716 7.7493 12.5247 8.47274 12.2372 9.15399C11.9591 9.8118 11.5591 10.404 11.0497 10.9118C10.5403 11.4196 9.94813 11.8196 9.28875 12.0977C8.60696 12.3857 7.87417 12.5334 7.13406 12.5321C6.38563 12.5321 5.66063 12.3852 4.97938 12.0977C4.3213 11.8199 3.72329 11.4172 3.21844 10.9118C3.095 10.7884 2.97938 10.6602 2.86844 10.529C2.82156 10.4712 2.74969 10.4384 2.67625 10.4384H1.57781C1.47938 10.4384 1.41844 10.5477 1.47313 10.6306C2.67 12.4884 4.7575 13.7196 7.13406 13.7196C10.8247 13.7196 13.8216 10.7493 13.8591 7.06961C13.8966 3.33055 10.895 0.291488 7.15125 0.282113ZM5.17188 8.75086V7.56336H0.265625C0.196875 7.56336 0.140625 7.50711 0.140625 7.43836V6.56336C0.140625 6.49461 0.196875 6.43836 0.265625 6.43836H5.17188V5.25086C5.17188 5.14618 5.29375 5.0868 5.375 5.15243L7.59219 6.90243C7.60713 6.91412 7.61921 6.92906 7.62752 6.94611C7.63583 6.96317 7.64015 6.98189 7.64015 7.00086C7.64015 7.01984 7.63583 7.03856 7.62752 7.05561C7.61921 7.07267 7.60713 7.08761 7.59219 7.0993L5.375 8.8493C5.29375 8.91336 5.17188 8.85555 5.17188 8.75086Z" fill="white"/>
</g>
</g>
<defs>
<clipPath id="clip0_180836_4155">
<rect width="14" height="14" fill="white"/>
</clipPath>
<clipPath id="clip1_180836_4155">
<rect width="14" height="14" fill="white"/>
</clipPath>
</defs>
</svg>
